<?xml version="1.0" encoding="UTF-8"?>
<svg width="260px" height="33px" viewBox="0 0 260 33" version="1.1" xmlns="http://www.w3.org/2000/svg" xmlns:xlink="http://www.w3.org/1999/xlink">
    <title>Logo</title>
    <g id="Home" stroke="none" stroke-width="1" fill="none" fill-rule="evenodd">
        <g id="Desktop---1440" transform="translate(-136.000000, -49.000000)" fill="#FFFFFF" fill-rule="nonzero">
            <g id="Hero">
                <g id="Nav" transform="translate(136.000000, 44.000000)">
                    <g id="Left" transform="translate(0.000000, 5.000000)">
                        <path d="M15.708,32.264 C16.324,32.264 16.9033333,32.11 17.446,31.802 C17.9886667,31.494 18.392,31.0613333 18.656,30.504 L18.656,30.504 L30.844,4.28 C31.02,3.86933333 31.108,3.50266667 31.108,3.18 C31.108,2.476 30.8146667,1.88933333 30.228,1.42 C29.6413333,0.950666667 28.9813333,0.716 28.248,0.716 C27.1626667,0.716 26.3853333,1.21466667 25.916,2.212 L25.916,2.212 L15.796,24.696 L5.676,2.212 C5.44133333,1.71333333 5.11133333,1.33933333 4.686,1.09 C4.26066667,0.840666667 3.79866667,0.716 3.3,0.716 C2.53733333,0.716 1.85533333,0.950666667 1.254,1.42 C0.652666667,1.88933333 0.352,2.49066667 0.352,3.224 C0.352,3.51733333 0.44,3.86933333 0.616,4.28 L0.616,4.28 L12.76,30.504 C13.024,31.0613333 13.4273333,31.494 13.97,31.802 C14.5126667,32.11 15.092,32.264 15.708,32.264 Z M37.004,6.128 C38.0013333,6.128 38.7933333,5.85666667 39.38,5.314 C39.9666667,4.77133333 40.26,4.06 40.26,3.18 C40.26,2.3 39.9593333,1.596 39.358,1.068 C38.7566667,0.54 37.972,0.276 37.004,0.276 C36.0066667,0.276 35.2146667,0.54 34.628,1.068 C34.0413333,1.596 33.748,2.3 33.748,3.18 C33.748,4.06 34.0413333,4.77133333 34.628,5.314 C35.2146667,5.85666667 36.0066667,6.128 37.004,6.128 Z M37.004,32.264 C37.796,32.264 38.456,32.0366667 38.984,31.582 C39.512,31.1273333 39.776,30.4746667 39.776,29.624 L39.776,29.624 L39.776,12.64 C39.776,11.7893333 39.512,11.144 38.984,10.704 C38.456,10.264 37.796,10.044 37.004,10.044 C36.212,10.044 35.5593333,10.264 35.046,10.704 C34.5326667,11.144 34.276,11.7893333 34.276,12.64 L34.276,12.64 L34.276,29.624 C34.276,30.4746667 34.5326667,31.1273333 35.046,31.582 C35.5593333,32.0366667 36.212,32.264 37.004,32.264 Z M48.18,32.264 C48.972,32.264 49.632,32.0366667 50.16,31.582 C50.688,31.1273333 50.952,30.4746667 50.952,29.624 L50.952,29.624 L50.952,20.384 C50.952,18.888 51.3553333,17.6413333 52.162,16.644 C52.9686667,15.6466667 54.2373333,15.06 55.968,14.884 L55.968,14.884 L57.288,14.752 C58.2853333,14.6346667 58.9746667,14.3853333 59.356,14.004 C59.7373333,13.6226667 59.928,13.036 59.928,12.244 C59.928,11.4813333 59.708,10.9093333 59.268,10.528 C58.828,10.1466667 58.2266667,9.98533333 57.464,10.044 L57.464,10.044 L56.848,10.088 C55.4986667,10.176 54.274,10.572 53.174,11.276 C52.074,11.98 51.2453333,12.9773333 50.688,14.268 L50.688,14.268 L50.688,12.508 C50.688,11.716 50.4533333,11.1073333 49.984,10.682 C49.5146667,10.2566667 48.8986667,10.044 48.136,10.044 C47.3733333,10.044 46.7353333,10.264 46.222,10.704 C45.7086667,11.144 45.452,11.7746667 45.452,12.596 L45.452,12.596 L45.452,29.624 C45.452,30.4746667 45.7086667,31.1273333 46.222,31.582 C46.7353333,32.0366667 47.388,32.264 48.18,32.264 Z M72.38,32.22 C73.436,32.2786667 74.25,32.1246667 74.822,31.758 C75.394,31.3913333 75.68,30.856 75.68,30.152 C75.68,28.92 74.9466667,28.26 73.48,28.172 L73.48,28.172 L72.292,28.084 C70.2973333,27.9373333 69.3,26.7786667 69.3,24.608 L69.3,24.608 L69.3,14.62 L73.04,14.62 C73.832,14.62 74.4406667,14.444 74.866,14.092 C75.2913333,13.74 75.504,13.2266667 75.504,12.552 C75.504,11.8773333 75.2913333,11.364 74.866,11.012 C74.4406667,10.66 73.832,10.484 73.04,10.484 L73.04,10.484 L69.3,10.484 L69.3,6.436 C69.3,5.644 69.0506667,5.01333333 68.552,4.544 C68.0533333,4.07466667 67.3933333,3.84 66.572,3.84 C65.7213333,3.84 65.0466667,4.07466667 64.548,4.544 C64.0493333,5.01333333 63.8,5.644 63.8,6.436 L63.8,6.436 L63.8,10.484 L61.6,10.484 C60.808,10.484 60.1993333,10.66 59.774,11.012 C59.3486667,11.364 59.136,11.8773333 59.136,12.552 C59.136,13.2266667 59.3486667,13.74 59.774,14.092 C60.1993333,14.444 60.808,14.62 61.6,14.62 L61.6,14.62 L63.8,14.62 L63.8,24.212 C63.8,29.14 66.264,31.78 71.192,32.132 L71.192,32.132 L72.38,32.22 Z M86.328,32.352 C87.7653333,32.352 89.056,32.0366667 90.2,31.406 C91.344,30.7753333 92.2533333,29.8733333 92.928,28.7 L92.928,28.7 L92.928,29.8 C92.928,30.5626667 93.1626667,31.164 93.632,31.604 C94.1013333,32.044 94.732,32.264 95.524,32.264 C96.3453333,32.264 97.0126667,32.0293333 97.526,31.56 C98.0393333,31.0906667 98.296,30.4746667 98.296,29.712 L98.296,29.712 L98.296,12.64 C98.296,11.848 98.0466667,11.2173333 97.548,10.748 C97.0493333,10.2786667 96.3746667,10.044 95.524,10.044 C94.7026667,10.044 94.0426667,10.2786667 93.544,10.748 C93.0453333,11.2173333 92.796,11.848 92.796,12.64 L92.796,12.64 L92.796,22.452 C92.796,24.124 92.334,25.466 91.41,26.478 C90.486,27.49 89.2613333,27.996 87.736,27.996 C86.416,27.996 85.448,27.6293333 84.832,26.896 C84.216,26.1626667 83.908,25.0333333 83.908,23.508 L83.908,23.508 L83.908,12.64 C83.908,11.848 83.6586667,11.2173333 83.16,10.748 C82.6613333,10.2786667 81.9866667,10.044 81.136,10.044 C80.3146667,10.044 79.6546667,10.2786667 79.156,10.748 C78.6573333,11.2173333 78.408,11.848 78.408,12.64 L78.408,12.64 L78.408,23.464 C78.408,29.3893333 81.048,32.352 86.328,32.352 Z M110.88,32.352 C112.288,32.352 113.527333,32.0293333 114.598,31.384 C115.668667,30.7386667 116.453333,29.844 116.952,28.7 L116.952,28.7 L116.952,29.668 C116.952,30.4306667 117.194,31.0466667 117.678,31.516 C118.162,31.9853333 118.785333,32.22 119.548,32.22 C120.369333,32.22 121.014667,31.9926667 121.484,31.538 C121.953333,31.0833333 122.188,30.46 122.188,29.668 L122.188,29.668 L122.188,18.932 C122.188,15.9106667 121.462,13.6593333 120.01,12.178 C118.558,10.6966667 116.336,9.956 113.344,9.956 C111.965333,9.956 110.564667,10.1173333 109.142,10.44 C107.719333,10.7626667 106.494667,11.2026667 105.468,11.76 C104.881333,12.0826667 104.463333,12.4273333 104.214,12.794 C103.964667,13.1606667 103.84,13.5933333 103.84,14.092 C103.84,14.708 104.008667,15.2066667 104.346,15.588 C104.683333,15.9693333 105.116,16.16 105.644,16.16 C105.996,16.16 106.553333,15.9693333 107.316,15.588 C108.518667,15.1186667 109.56,14.7593333 110.44,14.51 C111.32,14.2606667 112.185333,14.136 113.036,14.136 C114.414667,14.136 115.412,14.466 116.028,15.126 C116.644,15.786 116.952,16.8346667 116.952,18.272 L116.952,18.272 L116.952,19.284 L115.852,19.284 C112.654667,19.284 110.146667,19.4893333 108.328,19.9 C106.509333,20.3106667 105.196667,20.9706667 104.39,21.88 C103.583333,22.7893333 103.18,24.036 103.18,25.62 C103.18,26.8813333 103.517333,28.0253333 104.192,29.052 C104.866667,30.0786667 105.790667,30.8853333 106.964,31.472 C108.137333,32.0586667 109.442667,32.352 110.88,32.352 Z M111.98,28.392 C111.012,28.392 110.198,28.0913333 109.538,27.49 C108.878,26.8886667 108.548,26.1186667 108.548,25.18 C108.548,24.4173333 108.782667,23.816 109.252,23.376 C109.721333,22.936 110.498667,22.628 111.584,22.452 C112.669333,22.276 114.194667,22.188 116.16,22.188 L116.16,22.188 L116.952,22.188 L116.952,23.112 C116.952,24.6666667 116.49,25.9353333 115.566,26.918 C114.642,27.9006667 113.446667,28.392 111.98,28.392 Z M130.504,32.264 C131.296,32.264 131.956,32.0366667 132.484,31.582 C133.012,31.1273333 133.276,30.4746667 133.276,29.624 L133.276,29.624 L133.276,3.356 C133.276,2.50533333 133.012,1.86 132.484,1.42 C131.956,0.98 131.296,0.76 130.504,0.76 C129.712,0.76 129.059333,0.98 128.546,1.42 C128.032667,1.86 127.776,2.50533333 127.776,3.356 L127.776,3.356 L127.776,29.624 C127.776,30.4746667 128.032667,31.1273333 128.546,31.582 C129.059333,32.0366667 129.712,32.264 130.504,32.264 Z M163.724,32.264 C164.34,32.264 164.919333,32.11 165.462,31.802 C166.004667,31.494 166.408,31.0613333 166.672,30.504 L166.672,30.504 L178.86,4.28 C179.036,3.86933333 179.124,3.50266667 179.124,3.18 C179.124,2.476 178.830667,1.88933333 178.244,1.42 C177.657333,0.950666667 176.997333,0.716 176.264,0.716 C175.178667,0.716 174.401333,1.21466667 173.932,2.212 L173.932,2.212 L163.812,24.696 L153.692,2.212 C153.457333,1.71333333 153.127333,1.33933333 152.702,1.09 C152.276667,0.840666667 151.814667,0.716 151.316,0.716 C150.553333,0.716 149.871333,0.950666667 149.27,1.42 C148.668667,1.88933333 148.368,2.49066667 148.368,3.224 C148.368,3.51733333 148.456,3.86933333 148.632,4.28 L148.632,4.28 L160.776,30.504 C161.04,31.0613333 161.443333,31.494 161.986,31.802 C162.528667,32.11 163.108,32.264 163.724,32.264 Z M185.02,6.128 C186.017333,6.128 186.809333,5.85666667 187.396,5.314 C187.982667,4.77133333 188.276,4.06 188.276,3.18 C188.276,2.3 187.975333,1.596 187.374,1.068 C186.772667,0.54 185.988,0.276 185.02,0.276 C184.022667,0.276 183.230667,0.54 182.644,1.068 C182.057333,1.596 181.764,2.3 181.764,3.18 C181.764,4.06 182.057333,4.77133333 182.644,5.314 C183.230667,5.85666667 184.022667,6.128 185.02,6.128 Z M185.02,32.264 C185.812,32.264 186.472,32.0366667 187,31.582 C187.528,31.1273333 187.792,30.4746667 187.792,29.624 L187.792,29.624 L187.792,12.64 C187.792,11.7893333 187.528,11.144 187,10.704 C186.472,10.264 185.812,10.044 185.02,10.044 C184.228,10.044 183.575333,10.264 183.062,10.704 C182.548667,11.144 182.292,11.7893333 182.292,12.64 L182.292,12.64 L182.292,29.624 C182.292,30.4746667 182.548667,31.1273333 183.062,31.582 C183.575333,32.0366667 184.228,32.264 185.02,32.264 Z M201.256,32.352 C204.013333,32.352 206.220667,31.7506667 207.878,30.548 C209.535333,29.3453333 210.364,27.7466667 210.364,25.752 C210.364,24.52 210.122,23.508 209.638,22.716 C209.154,21.924 208.354667,21.264 207.24,20.736 C206.125333,20.208 204.585333,19.7386667 202.62,19.328 C200.772,18.9466667 199.525333,18.5653333 198.88,18.184 C198.234667,17.8026667 197.912,17.2453333 197.912,16.512 C197.912,15.7493333 198.227333,15.148 198.858,14.708 C199.488667,14.268 200.346667,14.048 201.432,14.048 C202.341333,14.048 203.104,14.158 203.72,14.378 C204.336,14.598 205.069333,14.928 205.92,15.368 C206.389333,15.632 206.778,15.83 207.086,15.962 C207.394,16.094 207.709333,16.16 208.032,16.16 C208.501333,16.16 208.897333,15.962 209.22,15.566 C209.542667,15.17 209.704,14.6786667 209.704,14.092 C209.704,13.124 209.234667,12.3466667 208.296,11.76 C207.386667,11.1733333 206.36,10.726 205.216,10.418 C204.072,10.11 202.884,9.956 201.652,9.956 C199.950667,9.956 198.432667,10.242 197.098,10.814 C195.763333,11.386 194.714667,12.1926667 193.952,13.234 C193.189333,14.2753333 192.808,15.4413333 192.808,16.732 C192.808,18.4333333 193.372667,19.768 194.502,20.736 C195.631333,21.704 197.501333,22.452 200.112,22.98 C201.578667,23.3026667 202.671333,23.5886667 203.39,23.838 C204.108667,24.0873333 204.607333,24.3586667 204.886,24.652 C205.164667,24.9453333 205.304,25.3413333 205.304,25.84 C205.304,26.5733333 204.959333,27.1453333 204.27,27.556 C203.580667,27.9666667 202.62,28.172 201.388,28.172 C200.185333,28.172 199.195333,28.0546667 198.418,27.82 C197.640667,27.5853333 196.782667,27.248 195.844,26.808 C194.964,26.3386667 194.274667,26.104 193.776,26.104 C193.306667,26.104 192.910667,26.2873333 192.588,26.654 C192.265333,27.0206667 192.104,27.4973333 192.104,28.084 C192.104,29.1106667 192.573333,29.9026667 193.512,30.46 C195.477333,31.7213333 198.058667,32.352 201.256,32.352 Z M217.536,6.128 C218.533333,6.128 219.325333,5.85666667 219.912,5.314 C220.498667,4.77133333 220.792,4.06 220.792,3.18 C220.792,2.3 220.491333,1.596 219.89,1.068 C219.288667,0.54 218.504,0.276 217.536,0.276 C216.538667,0.276 215.746667,0.54 215.16,1.068 C214.573333,1.596 214.28,2.3 214.28,3.18 C214.28,4.06 214.573333,4.77133333 215.16,5.314 C215.746667,5.85666667 216.538667,6.128 217.536,6.128 Z M217.536,32.264 C218.328,32.264 218.988,32.0366667 219.516,31.582 C220.044,31.1273333 220.308,30.4746667 220.308,29.624 L220.308,29.624 L220.308,12.64 C220.308,11.7893333 220.044,11.144 219.516,10.704 C218.988,10.264 218.328,10.044 217.536,10.044 C216.744,10.044 216.091333,10.264 215.578,10.704 C215.064667,11.144 214.808,11.7893333 214.808,12.64 L214.808,12.64 L214.808,29.624 C214.808,30.4746667 215.064667,31.1273333 215.578,31.582 C216.091333,32.0366667 216.744,32.264 217.536,32.264 Z M236.06,32.22 C237.116,32.2786667 237.93,32.1246667 238.502,31.758 C239.074,31.3913333 239.36,30.856 239.36,30.152 C239.36,28.92 238.626667,28.26 237.16,28.172 L237.16,28.172 L235.972,28.084 C233.977333,27.9373333 232.98,26.7786667 232.98,24.608 L232.98,24.608 L232.98,14.62 L236.72,14.62 C237.512,14.62 238.120667,14.444 238.546,14.092 C238.971333,13.74 239.184,13.2266667 239.184,12.552 C239.184,11.8773333 238.971333,11.364 238.546,11.012 C238.120667,10.66 237.512,10.484 236.72,10.484 L236.72,10.484 L232.98,10.484 L232.98,6.436 C232.98,5.644 232.730667,5.01333333 232.232,4.544 C231.733333,4.07466667 231.073333,3.84 230.252,3.84 C229.401333,3.84 228.726667,4.07466667 228.228,4.544 C227.729333,5.01333333 227.48,5.644 227.48,6.436 L227.48,6.436 L227.48,10.484 L225.28,10.484 C224.488,10.484 223.879333,10.66 223.454,11.012 C223.028667,11.364 222.816,11.8773333 222.816,12.552 C222.816,13.2266667 223.028667,13.74 223.454,14.092 C223.879333,14.444 224.488,14.62 225.28,14.62 L225.28,14.62 L227.48,14.62 L227.48,24.212 C227.48,29.14 229.944,31.78 234.872,32.132 L234.872,32.132 L236.06,32.22 Z M250.008,32.352 C252.765333,32.352 254.972667,31.7506667 256.63,30.548 C258.287333,29.3453333 259.116,27.7466667 259.116,25.752 C259.116,24.52 258.874,23.508 258.39,22.716 C257.906,21.924 257.106667,21.264 255.992,20.736 C254.877333,20.208 253.337333,19.7386667 251.372,19.328 C249.524,18.9466667 248.277333,18.5653333 247.632,18.184 C246.986667,17.8026667 246.664,17.2453333 246.664,16.512 C246.664,15.7493333 246.979333,15.148 247.61,14.708 C248.240667,14.268 249.098667,14.048 250.184,14.048 C251.093333,14.048 251.856,14.158 252.472,14.378 C253.088,14.598 253.821333,14.928 254.672,15.368 C255.141333,15.632 255.53,15.83 255.838,15.962 C256.146,16.094 256.461333,16.16 256.784,16.16 C257.253333,16.16 257.649333,15.962 257.972,15.566 C258.294667,15.17 258.456,14.6786667 258.456,14.092 C258.456,13.124 257.986667,12.3466667 257.048,11.76 C256.138667,11.1733333 255.112,10.726 253.968,10.418 C252.824,10.11 251.636,9.956 250.404,9.956 C248.702667,9.956 247.184667,10.242 245.85,10.814 C244.515333,11.386 243.466667,12.1926667 242.704,13.234 C241.941333,14.2753333 241.56,15.4413333 241.56,16.732 C241.56,18.4333333 242.124667,19.768 243.254,20.736 C244.383333,21.704 246.253333,22.452 248.864,22.98 C250.330667,23.3026667 251.423333,23.5886667 252.142,23.838 C252.860667,24.0873333 253.359333,24.3586667 253.638,24.652 C253.916667,24.9453333 254.056,25.3413333 254.056,25.84 C254.056,26.5733333 253.711333,27.1453333 253.022,27.556 C252.332667,27.9666667 251.372,28.172 250.14,28.172 C248.937333,28.172 247.947333,28.0546667 247.17,27.82 C246.392667,27.5853333 245.534667,27.248 244.596,26.808 C243.716,26.3386667 243.026667,26.104 242.528,26.104 C242.058667,26.104 241.662667,26.2873333 241.34,26.654 C241.017333,27.0206667 240.856,27.4973333 240.856,28.084 C240.856,29.1106667 241.325333,29.9026667 242.264,30.46 C244.229333,31.7213333 246.810667,32.352 250.008,32.352 Z" id="Logo"></path>
                    </g>
                </g>
            </g>
        </g>
    </g>
</svg>